<svg xmlns="http://www.w3.org/2000/svg" width="195" height="195" viewBox="0 0 195 195">
<rect width="100%" height="100%" fill="white" />
<line x1="10" y1="10" x2="35" y2="10" stroke="black" stroke-width="2" />
<line x1="35" y1="10" x2="35" y2="35" stroke="black" stroke-width="2" />
<line x1="10" y1="10" x2="10" y2="35" stroke="black" stroke-width="2" />
<line x1="35" y1="10" x2="60" y2="10" stroke="black" stroke-width="2" />
<line x1="35" y1="10" x2="35" y2="35" stroke="black" stroke-width="2" />
<line x1="44" y1="19" x2="51" y2="26" stroke="red" stroke-width="2" />
<line x1="44" y1="26" x2="51" y2="19" stroke="red" stroke-width="2" />
<line x1="60" y1="10" x2="85" y2="10" stroke="black" stroke-width="2" />
<line x1="60" y1="35" x2="85" y2="35" stroke="black" stroke-width="2" />
<line x1="69" y1="19" x2="76" y2="26" stroke="red" stroke-width="2" />
<line x1="69" y1="26" x2="76" y2="19" stroke="red" stroke-width="2" />
<line x1="85" y1="10" x2="110" y2="10" stroke="black" stroke-width="2" />
<line x1="85" y1="35" x2="110" y2="35" stroke="black" stroke-width="2" />
<line x1="94" y1="19" x2="101" y2="26" stroke="red" stroke-width="2" />
<line x1="94" y1="26" x2="101" y2="19" stroke="red" stroke-width="2" />
<line x1="110" y1="10" x2="135" y2="10" stroke="black" stroke-width="2" />
<line x1="135" y1="10" x2="135" y2="35" stroke="black" stroke-width="2" />
<line x1="119" y1="19" x2="126" y2="26" stroke="red" stroke-width="2" />
<line x1="119" y1="26" x2="126" y2="19" stroke="red" stroke-width="2" />
<line x1="135" y1="10" x2="160" y2="10" stroke="black" stroke-width="2" />
<line x1="135" y1="35" x2="160" y2="35" stroke="black" stroke-width="2" />
<line x1="135" y1="10" x2="135" y2="35" stroke="black" stroke-width="2" />
<line x1="160" y1="10" x2="185" y2="10" stroke="black" stroke-width="2" />
<line x1="185" y1="10" x2="185" y2="35" stroke="black" stroke-width="2" />
<line x1="10" y1="35" x2="10" y2="60" stroke="black" stroke-width="2" />
<line x1="19" y1="44" x2="26" y2="51" stroke="red" stroke-width="2" />
<line x1="19" y1="51" x2="26" y2="44" stroke="red" stroke-width="2" />
<line x1="60" y1="35" x2="60" y2="60" stroke="black" stroke-width="2" />
<line x1="44" y1="44" x2="51" y2="51" stroke="red" stroke-width="2" />
<line x1="44" y1="51" x2="51" y2="44" stroke="red" stroke-width="2" />
<line x1="60" y1="35" x2="85" y2="35" stroke="black" stroke-width="2" />
<line x1="60" y1="35" x2="60" y2="60" stroke="black" stroke-width="2" />
<line x1="85" y1="35" x2="110" y2="35" stroke="black" stroke-width="2" />
<line x1="110" y1="35" x2="110" y2="60" stroke="black" stroke-width="2" />
<line x1="110" y1="60" x2="135" y2="60" stroke="black" stroke-width="2" />
<line x1="110" y1="35" x2="110" y2="60" stroke="black" stroke-width="2" />
<line x1="119" y1="44" x2="126" y2="51" stroke="red" stroke-width="2" />
<line x1="119" y1="51" x2="126" y2="44" stroke="red" stroke-width="2" />
<line x1="135" y1="35" x2="160" y2="35" stroke="black" stroke-width="2" />
<line x1="160" y1="35" x2="160" y2="60" stroke="black" stroke-width="2" />
<line x1="144" y1="44" x2="151" y2="51" stroke="red" stroke-width="2" />
<line x1="144" y1="51" x2="151" y2="44" stroke="red" stroke-width="2" />
<line x1="185" y1="35" x2="185" y2="60" stroke="black" stroke-width="2" />
<line x1="160" y1="35" x2="160" y2="60" stroke="black" stroke-width="2" />
<line x1="35" y1="60" x2="35" y2="85" stroke="black" stroke-width="2" />
<line x1="10" y1="60" x2="10" y2="85" stroke="black" stroke-width="2" />
<line x1="19" y1="69" x2="26" y2="76" stroke="red" stroke-width="2" />
<line x1="19" y1="76" x2="26" y2="69" stroke="red" stroke-width="2" />
<line x1="60" y1="60" x2="60" y2="85" stroke="black" stroke-width="2" />
<line x1="35" y1="85" x2="60" y2="85" stroke="black" stroke-width="2" />
<line x1="35" y1="60" x2="35" y2="85" stroke="black" stroke-width="2" />
<line x1="85" y1="60" x2="85" y2="85" stroke="black" stroke-width="2" />
<line x1="60" y1="85" x2="85" y2="85" stroke="black" stroke-width="2" />
<line x1="60" y1="60" x2="60" y2="85" stroke="black" stroke-width="2" />
<line x1="110" y1="60" x2="110" y2="85" stroke="black" stroke-width="2" />
<line x1="85" y1="60" x2="85" y2="85" stroke="black" stroke-width="2" />
<line x1="110" y1="60" x2="135" y2="60" stroke="black" stroke-width="2" />
<line x1="135" y1="60" x2="135" y2="85" stroke="black" stroke-width="2" />
<line x1="110" y1="60" x2="110" y2="85" stroke="black" stroke-width="2" />
<line x1="135" y1="85" x2="160" y2="85" stroke="black" stroke-width="2" />
<line x1="135" y1="60" x2="135" y2="85" stroke="black" stroke-width="2" />
<line x1="144" y1="69" x2="151" y2="76" stroke="red" stroke-width="2" />
<line x1="144" y1="76" x2="151" y2="69" stroke="red" stroke-width="2" />
<line x1="185" y1="60" x2="185" y2="85" stroke="black" stroke-width="2" />
<line x1="169" y1="69" x2="176" y2="76" stroke="red" stroke-width="2" />
<line x1="169" y1="76" x2="176" y2="69" stroke="red" stroke-width="2" />
<line x1="35" y1="85" x2="35" y2="110" stroke="black" stroke-width="2" />
<line x1="10" y1="85" x2="10" y2="110" stroke="black" stroke-width="2" />
<line x1="19" y1="94" x2="26" y2="101" stroke="red" stroke-width="2" />
<line x1="19" y1="101" x2="26" y2="94" stroke="red" stroke-width="2" />
<line x1="35" y1="85" x2="60" y2="85" stroke="black" stroke-width="2" />
<line x1="35" y1="85" x2="35" y2="110" stroke="black" stroke-width="2" />
<line x1="60" y1="85" x2="85" y2="85" stroke="black" stroke-width="2" />
<line x1="60" y1="110" x2="85" y2="110" stroke="black" stroke-width="2" />
<line x1="110" y1="85" x2="110" y2="110" stroke="black" stroke-width="2" />
<line x1="94" y1="94" x2="101" y2="101" stroke="red" stroke-width="2" />
<line x1="94" y1="101" x2="101" y2="94" stroke="red" stroke-width="2" />
<line x1="110" y1="110" x2="135" y2="110" stroke="black" stroke-width="2" />
<line x1="110" y1="85" x2="110" y2="110" stroke="black" stroke-width="2" />
<line x1="135" y1="85" x2="160" y2="85" stroke="black" stroke-width="2" />
<line x1="160" y1="85" x2="160" y2="110" stroke="black" stroke-width="2" />
<line x1="185" y1="85" x2="185" y2="110" stroke="black" stroke-width="2" />
<line x1="160" y1="85" x2="160" y2="110" stroke="black" stroke-width="2" />
<line x1="169" y1="94" x2="176" y2="101" stroke="red" stroke-width="2" />
<line x1="169" y1="101" x2="176" y2="94" stroke="red" stroke-width="2" />
<line x1="35" y1="110" x2="35" y2="135" stroke="black" stroke-width="2" />
<line x1="10" y1="110" x2="10" y2="135" stroke="black" stroke-width="2" />
<line x1="19" y1="119" x2="26" y2="126" stroke="red" stroke-width="2" />
<line x1="19" y1="126" x2="26" y2="119" stroke="red" stroke-width="2" />
<line x1="35" y1="135" x2="60" y2="135" stroke="black" stroke-width="2" />
<line x1="35" y1="110" x2="35" y2="135" stroke="black" stroke-width="2" />
<line x1="60" y1="110" x2="85" y2="110" stroke="black" stroke-width="2" />
<line x1="85" y1="110" x2="85" y2="135" stroke="black" stroke-width="2" />
<line x1="85" y1="135" x2="110" y2="135" stroke="black" stroke-width="2" />
<line x1="85" y1="110" x2="85" y2="135" stroke="black" stroke-width="2" />
<line x1="94" y1="119" x2="101" y2="126" stroke="red" stroke-width="2" />
<line x1="94" y1="126" x2="101" y2="119" stroke="red" stroke-width="2" />
<line x1="110" y1="110" x2="135" y2="110" stroke="black" stroke-width="2" />
<line x1="110" y1="135" x2="135" y2="135" stroke="black" stroke-width="2" />
<line x1="119" y1="119" x2="126" y2="126" stroke="red" stroke-width="2" />
<line x1="119" y1="126" x2="126" y2="119" stroke="red" stroke-width="2" />
<line x1="160" y1="110" x2="160" y2="135" stroke="black" stroke-width="2" />
<line x1="144" y1="119" x2="151" y2="126" stroke="red" stroke-width="2" />
<line x1="144" y1="126" x2="151" y2="119" stroke="red" stroke-width="2" />
<line x1="185" y1="110" x2="185" y2="135" stroke="black" stroke-width="2" />
<line x1="160" y1="110" x2="160" y2="135" stroke="black" stroke-width="2" />
<line x1="169" y1="119" x2="176" y2="126" stroke="red" stroke-width="2" />
<line x1="169" y1="126" x2="176" y2="119" stroke="red" stroke-width="2" />
<line x1="10" y1="135" x2="10" y2="160" stroke="black" stroke-width="2" />
<line x1="19" y1="144" x2="26" y2="151" stroke="red" stroke-width="2" />
<line x1="19" y1="151" x2="26" y2="144" stroke="red" stroke-width="2" />
<line x1="35" y1="135" x2="60" y2="135" stroke="black" stroke-width="2" />
<line x1="60" y1="135" x2="60" y2="160" stroke="black" stroke-width="2" />
<line x1="44" y1="144" x2="51" y2="151" stroke="red" stroke-width="2" />
<line x1="44" y1="151" x2="51" y2="144" stroke="red" stroke-width="2" />
<line x1="60" y1="160" x2="85" y2="160" stroke="black" stroke-width="2" />
<line x1="60" y1="135" x2="60" y2="160" stroke="black" stroke-width="2" />
<line x1="85" y1="135" x2="110" y2="135" stroke="black" stroke-width="2" />
<line x1="85" y1="160" x2="110" y2="160" stroke="black" stroke-width="2" />
<line x1="110" y1="135" x2="135" y2="135" stroke="black" stroke-width="2" />
<line x1="135" y1="135" x2="135" y2="160" stroke="black" stroke-width="2" />
<line x1="135" y1="160" x2="160" y2="160" stroke="black" stroke-width="2" />
<line x1="135" y1="135" x2="135" y2="160" stroke="black" stroke-width="2" />
<line x1="144" y1="144" x2="151" y2="151" stroke="red" stroke-width="2" />
<line x1="144" y1="151" x2="151" y2="144" stroke="red" stroke-width="2" />
<line x1="185" y1="135" x2="185" y2="160" stroke="black" stroke-width="2" />
<line x1="160" y1="160" x2="185" y2="160" stroke="black" stroke-width="2" />
<line x1="169" y1="144" x2="176" y2="151" stroke="red" stroke-width="2" />
<line x1="169" y1="151" x2="176" y2="144" stroke="red" stroke-width="2" />
<line x1="35" y1="160" x2="35" y2="185" stroke="black" stroke-width="2" />
<line x1="10" y1="185" x2="35" y2="185" stroke="black" stroke-width="2" />
<line x1="10" y1="160" x2="10" y2="185" stroke="black" stroke-width="2" />
<line x1="35" y1="185" x2="60" y2="185" stroke="black" stroke-width="2" />
<line x1="35" y1="160" x2="35" y2="185" stroke="black" stroke-width="2" />
<line x1="44" y1="169" x2="51" y2="176" stroke="red" stroke-width="2" />
<line x1="44" y1="176" x2="51" y2="169" stroke="red" stroke-width="2" />
<line x1="60" y1="160" x2="85" y2="160" stroke="black" stroke-width="2" />
<line x1="60" y1="185" x2="85" y2="185" stroke="black" stroke-width="2" />
<line x1="69" y1="169" x2="76" y2="176" stroke="red" stroke-width="2" />
<line x1="69" y1="176" x2="76" y2="169" stroke="red" stroke-width="2" />
<line x1="85" y1="160" x2="110" y2="160" stroke="black" stroke-width="2" />
<line x1="110" y1="160" x2="110" y2="185" stroke="black" stroke-width="2" />
<line x1="94" y1="169" x2="101" y2="176" stroke="red" stroke-width="2" />
<line x1="94" y1="176" x2="101" y2="169" stroke="red" stroke-width="2" />
<line x1="110" y1="185" x2="135" y2="185" stroke="black" stroke-width="2" />
<line x1="110" y1="160" x2="110" y2="185" stroke="black" stroke-width="2" />
<line x1="135" y1="160" x2="160" y2="160" stroke="black" stroke-width="2" />
<line x1="135" y1="185" x2="160" y2="185" stroke="black" stroke-width="2" />
<line x1="160" y1="160" x2="185" y2="160" stroke="black" stroke-width="2" />
<line x1="185" y1="160" x2="185" y2="185" stroke="black" stroke-width="2" />
<line x1="160" y1="185" x2="185" y2="185" stroke="black" stroke-width="2" />
</svg>
